<svg xmlns="http://www.w3.org/2000/svg" xmlns:xlink="http://www.w3.org/1999/xlink" width="500" zoomAndPan="magnify" viewBox="0 0 375 374.999991" height="500" preserveAspectRatio="xMidYMid meet" version="1.0"><defs><g/><clipPath id="e05e161239"><path d="M 91 130.160156 L 127.039062 130.160156 L 127.039062 244.933594 L 91 244.933594 Z M 91 130.160156 " clip-rule="nonzero"/></clipPath><clipPath id="af4683ce26"><path d="M 61.808594 198.679688 L 79.054688 198.679688 L 79.054688 215.929688 L 61.808594 215.929688 Z M 61.808594 198.679688 " clip-rule="nonzero"/></clipPath><clipPath id="e95287f727"><path d="M 61.808594 207.304688 C 61.808594 212.066406 65.667969 215.929688 70.429688 215.929688 C 75.195312 215.929688 79.054688 212.066406 79.054688 207.304688 C 79.054688 202.542969 75.195312 198.679688 70.429688 198.679688 C 65.667969 198.679688 61.808594 202.542969 61.808594 207.304688 " clip-rule="nonzero"/></clipPath><clipPath id="737490d99b"><path d="M 61.808594 159.054688 L 79.054688 159.054688 L 79.054688 176.300781 L 61.808594 176.300781 Z M 61.808594 159.054688 " clip-rule="nonzero"/></clipPath><clipPath id="70196792b7"><path d="M 61.808594 167.679688 C 61.808594 172.441406 65.667969 176.300781 70.429688 176.300781 C 75.195312 176.300781 79.054688 172.441406 79.054688 167.679688 C 79.054688 162.914062 75.195312 159.054688 70.429688 159.054688 C 65.667969 159.054688 61.808594 162.914062 61.808594 167.679688 " clip-rule="nonzero"/></clipPath></defs><rect x="-37.5" width="450" fill="#ffffff" y="-37.499999" height="449.999989" fill-opacity="1"/><rect x="-37.5" width="450" fill="#ffffff" y="-37.499999" height="449.999989" fill-opacity="1"/><rect x="-37.5" width="450" fill="#000000" y="-37.499999" height="449.999989" fill-opacity="1"/><g clip-path="url(#e05e161239)"><path fill="#ffffff" d="M 95.019531 232.179688 L 91.820312 232.179688 L 91.820312 244.933594 L 95.019531 244.933594 C 105.621094 244.933594 114.21875 236.367188 114.21875 225.804688 L 114.21875 203.488281 C 114.21875 201.480469 115.167969 199.589844 116.777344 198.386719 L 124.457031 192.648438 C 125.996094 191.5 126.933594 189.722656 127.011719 187.8125 C 127.09375 185.898438 126.304688 184.050781 124.871094 182.78125 L 116.367188 175.253906 C 115 174.042969 114.21875 172.308594 114.21875 170.488281 L 114.21875 149.289062 C 114.21875 138.726562 105.621094 130.160156 95.019531 130.160156 L 91.820312 130.160156 L 91.820312 142.914062 L 95.019531 142.914062 C 98.554688 142.914062 101.417969 145.769531 101.417969 149.289062 L 101.417969 170.488281 C 101.417969 175.949219 103.765625 181.15625 107.863281 184.785156 L 110.511719 187.128906 L 109.097656 188.183594 C 104.265625 191.796875 101.417969 197.464844 101.417969 203.488281 L 101.417969 225.804688 C 101.417969 229.324219 98.554688 232.179688 95.019531 232.179688 Z M 95.019531 232.179688 " fill-opacity="1" fill-rule="evenodd"/></g><g clip-path="url(#af4683ce26)"><g clip-path="url(#e95287f727)"><path fill="#ffffff" d="M 61.808594 215.929688 L 61.808594 198.679688 L 79.054688 198.679688 L 79.054688 215.929688 Z M 61.808594 215.929688 " fill-opacity="1" fill-rule="nonzero"/></g></g><g clip-path="url(#737490d99b)"><g clip-path="url(#70196792b7)"><path fill="#ffffff" d="M 61.808594 176.300781 L 61.808594 159.054688 L 79.054688 159.054688 L 79.054688 176.300781 Z M 61.808594 176.300781 " fill-opacity="1" fill-rule="nonzero"/></g></g><g fill="#ffffff" fill-opacity="1"><g transform="translate(133.839121, 181.416998)"><g><path d="M 23.53125 0.859375 C 20.476562 0.859375 17.65625 0.304688 15.0625 -0.796875 C 12.46875 -1.910156 10.210938 -3.4375 8.296875 -5.375 C 6.390625 -7.3125 4.890625 -9.582031 3.796875 -12.1875 C 2.703125 -14.800781 2.15625 -17.632812 2.15625 -20.6875 C 2.15625 -23.726562 2.703125 -26.566406 3.796875 -29.203125 C 4.890625 -31.835938 6.390625 -34.125 8.296875 -36.0625 C 10.210938 -38 12.46875 -39.507812 15.0625 -40.59375 C 17.65625 -41.6875 20.476562 -42.234375 23.53125 -42.234375 C 26.53125 -42.234375 29.335938 -41.6875 31.953125 -40.59375 C 34.566406 -39.507812 36.832031 -38 38.75 -36.0625 C 40.664062 -34.125 42.164062 -31.835938 43.25 -29.203125 C 44.34375 -26.566406 44.890625 -23.726562 44.890625 -20.6875 C 44.890625 -17.632812 44.34375 -14.800781 43.25 -12.1875 C 42.164062 -9.582031 40.664062 -7.3125 38.75 -5.375 C 36.832031 -3.4375 34.566406 -1.910156 31.953125 -0.796875 C 29.335938 0.304688 26.53125 0.859375 23.53125 0.859375 Z M 23.53125 -7.90625 C 25.257812 -7.90625 26.84375 -8.222656 28.28125 -8.859375 C 29.71875 -9.492188 30.960938 -10.390625 32.015625 -11.546875 C 33.066406 -12.703125 33.890625 -14.0625 34.484375 -15.625 C 35.078125 -17.1875 35.375 -18.875 35.375 -20.6875 C 35.375 -22.5 35.078125 -24.1875 34.484375 -25.75 C 33.890625 -27.3125 33.066406 -28.660156 32.015625 -29.796875 C 30.960938 -30.929688 29.71875 -31.828125 28.28125 -32.484375 C 26.84375 -33.140625 25.257812 -33.46875 23.53125 -33.46875 C 21.800781 -33.46875 20.210938 -33.140625 18.765625 -32.484375 C 17.328125 -31.828125 16.082031 -30.929688 15.03125 -29.796875 C 13.988281 -28.660156 13.164062 -27.3125 12.5625 -25.75 C 11.96875 -24.1875 11.671875 -22.5 11.671875 -20.6875 C 11.671875 -18.875 11.96875 -17.1875 12.5625 -15.625 C 13.164062 -14.0625 13.988281 -12.710938 15.03125 -11.578125 C 16.082031 -10.441406 17.328125 -9.546875 18.765625 -8.890625 C 20.210938 -8.234375 21.800781 -7.90625 23.53125 -7.90625 Z M 23.53125 -7.90625 "/></g></g></g><g fill="#ffffff" fill-opacity="1"><g transform="translate(180.889613, 181.416998)"><g><path d="M 4.625 -41.375 L 13.640625 -41.375 L 13.640625 -22.78125 L 26.484375 -41.375 L 36.859375 -41.375 L 22.96875 -21.671875 L 37.671875 0 L 26.859375 0 L 13.640625 -19.578125 L 13.640625 0 L 4.625 0 Z M 4.625 -41.375 "/></g></g></g><g fill="#ffffff" fill-opacity="1"><g transform="translate(218.245976, 181.416998)"><g><path d="M 16.921875 -42.109375 L 22.65625 -42.109375 L 38.96875 0 L 29.453125 0 L 26.921875 -6.984375 L 12.65625 -6.984375 L 10.1875 0 L 0.625 0 Z M 24.140625 -14.765625 L 19.828125 -26.921875 L 15.4375 -14.765625 Z M 24.140625 -14.765625 "/></g></g></g><g fill="#ffffff" fill-opacity="1"><g transform="translate(257.825193, 181.416998)"><g><path d="M 13.15625 -24.640625 L 13.15625 0 L 4.625 0 L 4.625 -42.109375 L 9.328125 -42.109375 L 32.421875 -16.734375 L 32.421875 -41.375 L 40.9375 -41.375 L 40.9375 0.734375 L 36.25 0.734375 Z M 13.15625 -24.640625 "/></g></g></g><g fill="#ffffff" fill-opacity="1"><g transform="translate(138.090684, 232.556675)"><g><path d="M 1.578125 -15.375 L 1.578125 -18.75 L 20 -27.296875 L 21.421875 -24.25 L 5.9375 -17.0625 L 21.421875 -9.8125 L 20 -6.765625 Z M 1.578125 -15.375 "/></g></g></g><g fill="#ffffff" fill-opacity="1"><g transform="translate(160.818075, 232.556675)"><g><path d="M 15.484375 -35.171875 L 19.109375 -35.171875 L 3.625 6.296875 L 0 6.296875 Z M 15.484375 -35.171875 "/></g></g></g><g fill="#ffffff" fill-opacity="1"><g transform="translate(179.66133, 232.556675)"><g><path d="M 17.109375 0.53125 C 15.222656 0.53125 13.5 0.171875 11.9375 -0.546875 C 10.382812 -1.265625 9.054688 -2.269531 7.953125 -3.5625 C 6.847656 -4.863281 5.988281 -6.421875 5.375 -8.234375 C 4.769531 -10.054688 4.46875 -12.070312 4.46875 -14.28125 L 4.46875 -35.171875 L 8.140625 -35.171875 L 8.140625 -14.59375 C 8.140625 -12.84375 8.359375 -11.238281 8.796875 -9.78125 C 9.234375 -8.332031 9.851562 -7.097656 10.65625 -6.078125 C 11.457031 -5.066406 12.425781 -4.28125 13.5625 -3.71875 C 14.707031 -3.164062 15.976562 -2.890625 17.375 -2.890625 C 18.78125 -2.890625 20.050781 -3.164062 21.1875 -3.71875 C 22.320312 -4.28125 23.289062 -5.066406 24.09375 -6.078125 C 24.90625 -7.097656 25.53125 -8.332031 25.96875 -9.78125 C 26.40625 -11.238281 26.625 -12.84375 26.625 -14.59375 L 26.625 -35.171875 L 30.1875 -35.171875 L 30.1875 -14.28125 C 30.1875 -12.070312 29.863281 -10.054688 29.21875 -8.234375 C 28.570312 -6.421875 27.671875 -4.863281 26.515625 -3.5625 C 25.359375 -2.269531 23.972656 -1.265625 22.359375 -0.546875 C 20.753906 0.171875 19.003906 0.53125 17.109375 0.53125 Z M 17.109375 0.53125 "/></g></g></g><g fill="#ffffff" fill-opacity="1"><g transform="translate(214.041134, 232.556675)"><g><path d="M 4.71875 -36.21875 L 5.78125 -36.21875 L 21.375 -14.125 L 36.75 -36.21875 L 37.796875 -36.21875 L 37.796875 0 L 34.125 0 L 34.125 -26.296875 L 21.78125 -8.65625 L 20.734375 -8.65625 L 8.40625 -26.046875 L 8.40625 0 L 4.71875 0 Z M 4.71875 -36.21875 "/></g></g></g><g fill="#ffffff" fill-opacity="1"><g transform="translate(256.294182, 232.556675)"><g><path d="M 13.125 -31.765625 L 1.578125 -31.765625 L 1.578125 -35.171875 L 28.34375 -35.171875 L 28.34375 -31.765625 L 16.796875 -31.765625 L 16.796875 0 L 13.125 0 Z M 13.125 -31.765625 "/></g></g></g><g fill="#ffffff" fill-opacity="1"><g transform="translate(285.950034, 232.556675)"><g><path d="M 1.578125 -9.8125 L 17.0625 -17.0625 L 1.578125 -24.25 L 3 -27.296875 L 21.421875 -18.75 L 21.421875 -15.375 L 3 -6.765625 Z M 1.578125 -9.8125 "/></g></g></g></svg>